<svg xmlns="http://www.w3.org/2000/svg" width="854" height="768" viewBox="0 0 854 768" role="img" aria-labelledby="title desc">
  <title id="title">Grundriss nach Originalentwurf</title>
  <desc id="desc">Sauber nachgezeichnete Vektorgrafik des bereitgestellten Grundrissentwurfs mit gleicher Raumaufteilung, Möblierung und Beschriftung.</desc>
  <defs>
    <style>
      .grass { fill: #b6c57f; }
      .paper { fill: #f6f2e8; }
      .room { fill: #fffaf0; }
      .wet-room { fill: #f2f5f3; }
      .wall { fill: none; stroke: #142052; stroke-width: 9; stroke-linecap: square; stroke-linejoin: miter; }
      .wall-mid { fill: none; stroke: #142052; stroke-width: 7; stroke-linecap: square; stroke-linejoin: miter; }
      .opening { fill: none; stroke: #f8f0d8; stroke-width: 11; stroke-linecap: square; }
      .opening-tile { fill: none; stroke: #fffaf0; stroke-width: 11; stroke-linecap: square; }
      .door { fill: none; stroke: #8a826e; stroke-width: 2.5; stroke-linecap: round; }
      .label { font-family: Arial, Helvetica, sans-serif; fill: #2f2f2f; font-size: 22px; font-weight: 600; text-anchor: middle; }
      .area { font-family: Arial, Helvetica, sans-serif; fill: #464646; font-size: 15px; text-anchor: middle; }
      .small-label { font-size: 18px; }
      .small-area { font-size: 13px; }
      .note { font-family: Arial, Helvetica, sans-serif; fill: #4b4b4b; font-size: 13px; text-anchor: middle; }
      .furniture { fill: #b7955e; stroke: #866942; stroke-width: 1.5; }
      .soft { fill: #f8f5ec; stroke: #626262; stroke-width: 2; }
      .fixture { fill: none; stroke: #555; stroke-width: 2.3; }
      .thin { fill: none; stroke: #777; stroke-width: 1.6; }
      .plant { fill: #5d933d; opacity: .95; }
      .arrow { fill: none; stroke: #142052; stroke-width: 3.5; stroke-linecap: round; stroke-linejoin: round; }
    </style>
  </defs>

  <rect class="grass" width="854" height="768" />
  <rect class="paper" x="20" y="38" width="826" height="678" />

  <!-- room backgrounds, kept close to the original proportions -->
  <rect class="room" x="38" y="58" width="228" height="326" />
  <rect class="room" x="38" y="384" width="228" height="324" />
  <rect class="room" x="266" y="58" width="292" height="398" />
  <rect class="room" x="356" y="456" width="202" height="252" />
  <rect class="room" x="558" y="322" width="288" height="386" />
  <rect class="wet-room" x="558" y="58" width="132" height="86" />
  <rect class="wet-room" x="558" y="144" width="132" height="92" />
  <rect class="wet-room" x="690" y="58" width="156" height="178" />
  <rect class="room" x="690" y="236" width="156" height="86" />
  <rect class="room" x="266" y="456" width="90" height="252" />

  <!-- exterior outline -->
  <path class="wall" d="M38 42H846V716H38Z" />

  <!-- main interior walls -->
  <path class="wall" d="M266 42V384" />
  <path class="wall" d="M38 384H266" />
  <path class="wall" d="M266 384V716" />
  <path class="wall" d="M356 456H558" />
  <path class="wall" d="M356 456V716" />
  <path class="wall" d="M558 42V716" />
  <path class="wall" d="M558 322H846" />
  <path class="wall" d="M558 236H846" />
  <path class="wall" d="M690 42V236" />
  <path class="wall" d="M558 144H690" />
  <path class="wall" d="M558 236H690" />
  <path class="wall-mid" d="M486 42V58" />
  <path class="wall-mid" d="M356 332H462" />
  <path class="wall-mid" d="M414 332V456" />

  <!-- openings and windows; color-matched to the floor below -->
  <path class="opening" d="M128 42H182" />
  <path class="opening-tile" d="M306 42H370" />
  <path class="opening-tile" d="M444 42H508" />
  <path class="opening" d="M600 42H628" />
  <path class="opening" d="M710 42H780" />
  <path class="opening" d="M38 92V184" />
  <path class="opening" d="M38 482V566" />
  <path class="opening" d="M232 716H306" />
  <path class="opening" d="M382 716H466" />
  <path class="opening" d="M682 716H746" />
  <path class="opening" d="M846 392V478" />
  <path class="opening-tile" d="M266 195V274" />
  <path class="opening" d="M266 542V604" />
  <path class="opening" d="M558 518V600" />
  <path class="opening" d="M558 306H640" />
  <path class="opening" d="M690 228H742" />
  <path class="opening" d="M558 118V142" />
  <path class="opening" d="M356 640V696" />

  <!-- doors following the original swings -->
  <path class="door" d="M266 604V666" />
  <path class="door" d="M266 604A62 62 0 0 1 328 666" />
  <path class="door" d="M558 300V236" />
  <path class="door" d="M558 300A64 64 0 0 1 622 236" />
  <path class="door" d="M690 116V58" />
  <path class="door" d="M690 116A58 58 0 0 0 632 58" />
  <path class="door" d="M690 236H628" />
  <path class="door" d="M690 236A62 62 0 0 0 628 174" />
  <path class="door" d="M356 638V694" />
  <path class="door" d="M356 638A56 56 0 0 1 412 694" />

  <!-- kitchen top cabinets and hob, matching the dark block in the photo -->
  <rect class="furniture" x="318" y="58" width="28" height="28" />
  <rect class="furniture" x="350" y="58" width="36" height="28" />
  <rect fill="#1e1e1e" stroke="#333" stroke-width="1" x="320" y="64" width="22" height="20" rx="3" />
  <rect fill="#1e1e1e" stroke="#333" stroke-width="1" x="354" y="64" width="24" height="20" rx="3" />
  <rect class="furniture" x="430" y="64" width="88" height="30" opacity=".35" />

  <!-- Schlafen -->
  <rect class="furniture" x="44" y="72" width="34" height="102" />
  <rect class="soft" x="80" y="88" width="128" height="118" rx="7" />
  <rect class="soft" x="94" y="96" width="52" height="38" rx="7" />
  <rect class="furniture" x="42" y="384" width="214" height="54" />

  <!-- left child room -->
  <rect class="soft" x="126" y="414" width="112" height="80" rx="7" />
  <rect class="soft" x="136" y="424" width="54" height="28" rx="7" />
  <rect class="furniture" x="174" y="638" width="70" height="46" />

  <!-- centre child room -->
  <rect class="furniture" x="370" y="478" width="44" height="142" />
  <rect class="soft" x="456" y="474" width="72" height="160" rx="7" />
  <rect class="soft" x="462" y="484" width="42" height="34" rx="7" />
  <rect class="furniture" x="446" y="650" width="72" height="48" />
  <rect class="furniture" x="528" y="492" width="22" height="150" />

  <!-- living room furniture -->
  <rect class="furniture" x="604" y="340" width="100" height="30" />
  <rect class="soft" x="714" y="414" width="52" height="82" rx="22" />
  <rect class="soft" x="782" y="486" width="50" height="116" rx="10" />
  <rect class="soft" x="704" y="612" width="82" height="46" rx="13" />
  <ellipse class="soft" cx="744" cy="548" rx="48" ry="26" />
  <path class="plant" d="M809 336l18 12-5 22 18-13 21 8-7-21 14-18-22 1-12-19-6 21z" />
  <path class="plant" d="M792 642l21 5 7 21 12-18 22 1-14-17 8-21-22 8-18-14 2 23z" />

  <!-- bathroom, wc, storage fixtures -->
  <ellipse class="fixture" cx="802" cy="99" rx="24" ry="54" />
  <path class="fixture" d="M779 96h46" />
  <rect class="fixture" x="708" y="118" width="50" height="38" rx="8" />
  <path class="fixture" d="M716 143c12-12 24-13 36 0" />
  <rect class="fixture" x="764" y="178" width="56" height="38" rx="9" />
  <path class="fixture" d="M774 214c11-11 25-12 38 0" />
  <rect class="fixture" x="606" y="174" width="42" height="34" rx="8" />
  <path class="fixture" d="M612 204c11-10 22-10 32 0" />
  <path class="thin" d="M620 82h28M620 98h28M620 114h28" />

  <!-- fireplace position -->
  <text x="442" y="398" class="note">Kamin-</text>
  <text x="442" y="415" class="note">anschluss</text>

  <!-- labels placed as in the source plan -->
  <text x="152" y="272" class="label">Schlafen</text>
  <text x="152" y="293" class="area">17.50qm</text>

  <text x="150" y="580" class="label">Kind</text>
  <text x="150" y="601" class="area">14.85qm</text>

  <text x="302" y="578" class="label small-label">Flur</text>
  <text x="302" y="598" class="area small-area">7.00qm</text>

  <text x="462" y="202" class="label">Küche</text>
  <text x="462" y="223" class="area">17.00qm</text>

  <text x="452" y="598" class="label">Kind</text>
  <text x="452" y="619" class="area">10.25qm</text>

  <text x="630" y="82" class="label small-label">Abstell.</text>
  <text x="630" y="102" class="area small-area">2.43qm</text>

  <text x="626" y="196" class="label small-label">WC</text>
  <text x="626" y="216" class="area small-area">1.2qm</text>

  <text x="746" y="83" class="label small-label">Bad</text>
  <text x="746" y="103" class="area small-area">6.49qm</text>

  <text x="720" y="292" class="label small-label">Flur</text>
  <text x="720" y="312" class="area small-area">2.0qm</text>

  <text x="668" y="426" class="label">Wohnen</text>
  <text x="668" y="447" class="area">26.12qm</text>

  <!-- entrance arrow at the bottom, as in the original -->
  <path class="arrow" d="M306 758V724" />
  <path class="arrow" d="M306 724l-10 13M306 724l10 13" />
</svg>
